<svg width="253" height="240" viewBox="0 0 253 240" fill="none" xmlns="http://www.w3.org/2000/svg">
<path d="M126.293 240.001C196.043 240.001 252.586 208.693 252.586 170.073C252.586 131.452 196.043 100.145 126.293 100.145C56.5433 100.145 0 131.452 0 170.073C0 208.693 56.5433 240.001 126.293 240.001Z" fill="#F5F5F5"/>
<path d="M21.1999 190.843C36.4356 198.546 61.1297 198.546 76.3599 190.843C91.5901 183.14 91.5956 170.622 76.3599 162.903C61.1242 155.183 36.4356 155.2 21.1999 162.903C5.96418 170.606 5.98069 183.14 21.1999 190.843Z" fill="#E6E6E6"/>
<path d="M231.385 190.843C216.155 198.546 191.456 198.546 176.225 190.843C160.995 183.14 160.995 170.622 176.225 162.903C191.456 155.183 216.155 155.2 231.385 162.903C246.616 170.606 246.605 183.14 231.385 190.843Z" fill="#E6E6E6"/>
<path d="M157.655 167.866L126.292 149.758L94.9297 167.866L126.292 185.968L157.655 167.866Z" fill="#E6E6E6"/>
<path d="M171.11 62.9979C181.454 53.6882 192.569 42.0124 192.723 35.0356C187.92 34.9255 186.819 35.0356 183.677 37.418C180.882 39.5419 169.41 54.0623 165.52 56.5768C160.37 57.8699 151.104 59.3775 146.642 59.46C145.852 59.4684 145.086 59.1864 144.49 58.6677C142.878 57.2811 141.624 57.3251 139.869 56.4668C138.493 55.7845 137.959 55.0032 137.668 55.2453C137.376 55.4874 136.815 56.4943 137.58 57.6113C138.082 58.2656 138.673 58.8471 139.335 59.339C137.674 59.1497 136.048 58.7293 134.504 58.0899C130.801 56.6043 128.958 57.0665 130.438 61.9415C131.362 64.9898 133.998 66.833 141.442 67.0256C144.178 67.1509 146.92 67.0792 149.646 66.811C155.093 66.1012 161.355 65.9912 165.801 65.4299C167.776 65.1754 169.627 64.3274 171.11 62.9979Z" fill="#FFB3B2"/>
<path d="M193.241 34.7341C189.686 34.0794 185.439 35.0092 182.605 37.7548C179.771 40.5005 173.631 47.6589 173.631 47.6589C173.631 47.6589 176.586 53.1996 181.031 54.2946L185.433 49.4911L193.241 34.7341Z" fill="#FF6E64"/>
<path opacity="0.1" d="M193.241 34.7341C189.686 34.0794 185.439 35.0092 182.605 37.7548C179.771 40.5005 173.631 47.6589 173.631 47.6589C173.631 47.6589 176.586 53.1996 181.031 54.2946L185.433 49.4911L193.241 34.7341Z" fill="black"/>
<path d="M213.038 166.469H206.727V175.657H213.038V166.469Z" fill="#FFB3B2"/>
<path d="M190.839 155.096L184.531 155.312L184.847 164.496L191.154 164.279L190.839 155.096Z" fill="#FFB3B2"/>
<path d="M212.62 76.7539C212.62 82.8064 213.401 121.762 213.401 121.762C213.55 123.501 215.173 126.714 214.821 133.355C214.342 142.401 213.561 167.535 213.561 167.535C213.561 167.535 210.601 170.468 206.408 167.535C206.408 167.535 200.697 133.388 199.563 124.42C198.578 116.596 196.9 95.3405 196.9 95.3405L193.687 120.854C193.687 120.854 194.716 126.736 194.947 130.89C195.178 135.045 191.238 158.523 191.238 158.523C190.217 159.163 189.045 159.524 187.84 159.57C186.635 159.617 185.439 159.347 184.371 158.787C184.371 158.787 181.951 124.266 181.318 120.497C180.685 116.728 183.122 76.7539 183.122 76.7539H212.62Z" fill="#37474F"/>
<path d="M203.123 35.0185C203.596 35.1341 206.308 35.7723 208.889 36.4546C209.959 36.7368 210.906 37.3655 211.58 38.2425C212.255 39.1195 212.621 40.1954 212.62 41.3021V76.753C208.218 81.5675 192.767 83.8124 183.105 76.753V45.99C183.105 41.0765 185.857 35.1726 193.378 34.7324L203.123 35.0185Z" fill="#EBEBEB"/>
<path d="M205.246 9.86278C205.754 9.80308 206.269 9.86029 206.751 10.03C207.234 10.1998 207.671 10.4776 208.03 10.8422C209.224 12.0637 208.976 14.3251 208.03 19.5247L204.338 19.9484L205.246 9.86278Z" fill="#263238"/>
<path d="M183.71 8.36088C182.915 8.36424 182.129 8.20313 181.399 7.88769C180.266 7.23843 179.969 8.52595 180.59 9.64841C181.002 10.4496 181.613 11.1321 182.363 11.6309C183.113 12.1298 183.978 12.4285 184.877 12.4986C184.91 12.339 185.938 9.61539 185.938 9.61539L183.71 8.36088Z" fill="#263238"/>
<path d="M189.465 21.0538C193.449 21.0538 196.679 17.8243 196.679 13.8404C196.679 9.85652 193.449 6.62695 189.465 6.62695C185.482 6.62695 182.252 9.85652 182.252 13.8404C182.252 17.8243 185.482 21.0538 189.465 21.0538Z" fill="#263238"/>
<path d="M203.513 19.9495C204.063 20.2796 204.844 19.2232 205.521 18.5189C206.198 17.8146 208.404 16.8683 209.505 19.1627C210.605 21.4571 208.531 24.6649 206.792 25.2152C203.799 26.156 203.348 24.2358 203.348 24.2358L203.122 35.0367C203.122 35.0367 201.158 39.8346 195.848 40.5389C190.538 41.2432 191.633 36.8799 193.377 34.734V31.4327C193.377 31.4327 190.665 31.8454 189.344 31.6363C187.143 31.2951 185.751 29.5619 185.086 27.174C184.013 23.3224 183.605 20.2521 184.535 12.7251C185.537 4.4717 195.138 4.38366 200.321 7.64649C205.504 10.9093 203.513 19.9495 203.513 19.9495Z" fill="#FFB3B2"/>
<path d="M203.239 21.4784C203.497 21.3794 204.84 19.14 205.522 18.5182C206.468 17.6544 205.247 9.8632 205.247 9.8632C205.247 9.8632 206.204 6.9085 204.333 4.9497C202.463 2.9909 198.831 3.29902 196.196 3.22199C193.445 3.12295 190.484 2.95789 186.726 1.32372C182.968 -0.310446 182.682 -0.503024 182.214 1.14765C181.747 2.79832 181.571 6.58386 183.816 9.1204L185.686 9.80268C185.686 9.80268 186.693 10.6995 190.204 11.1287C192.841 11.4161 195.501 11.4161 198.138 11.1287C199.156 10.9912 200.24 11.6789 200.581 14.9143C200.834 17.2582 201.676 22.0672 203.239 21.4784Z" fill="#263238"/>
<path d="M205.242 10.469L208.543 8.69178C208.437 8.46775 208.287 8.26757 208.102 8.10339C207.916 7.93921 207.699 7.81448 207.464 7.73676C207.229 7.65905 206.98 7.62998 206.733 7.65133C206.487 7.67267 206.247 7.74399 206.028 7.86094C205.588 8.11156 205.26 8.52213 205.113 9.00764C204.967 9.49314 205.013 10.0164 205.242 10.469Z" fill="#263238"/>
<path d="M193.383 31.4482C193.383 31.4482 198.302 30.4578 200.019 29.5444C201.03 29.0165 201.858 28.1958 202.395 27.1895C202.135 28.1875 201.676 29.123 201.047 29.9406C199.787 31.5472 193.383 32.7302 193.383 32.7302V31.4482Z" fill="#F59595"/>
<path d="M193.383 18.7223C193.39 18.9166 193.455 19.1044 193.569 19.2622C193.682 19.42 193.84 19.541 194.021 19.6099C194.203 19.6788 194.401 19.6927 194.591 19.6498C194.781 19.6069 194.954 19.5091 195.088 19.3686C195.222 19.2281 195.313 19.0512 195.347 18.8599C195.382 18.6685 195.359 18.4712 195.282 18.2926C195.206 18.114 195.078 17.9619 194.915 17.8553C194.753 17.7488 194.562 17.6924 194.368 17.6934C194.102 17.702 193.85 17.8145 193.665 18.0069C193.481 18.1992 193.38 18.456 193.383 18.7223Z" fill="#263238"/>
<path d="M194.318 21.2977C194.318 21.3342 194.333 21.3692 194.359 21.395C194.384 21.4208 194.419 21.4353 194.456 21.4353C194.492 21.4353 194.527 21.4208 194.553 21.395C194.579 21.3692 194.593 21.3342 194.593 21.2977C194.593 21.2612 194.579 21.2262 194.553 21.2004C194.527 21.1746 194.492 21.1602 194.456 21.1602C194.419 21.1602 194.384 21.1746 194.359 21.2004C194.333 21.2262 194.318 21.2612 194.318 21.2977Z" fill="#F59595"/>
<path d="M195.425 20.669C195.424 20.6875 195.427 20.706 195.433 20.7234C195.44 20.7407 195.45 20.7565 195.463 20.7699C195.476 20.7832 195.491 20.7939 195.508 20.8011C195.525 20.8084 195.544 20.8121 195.562 20.8121C195.6 20.8121 195.637 20.797 195.663 20.7702C195.69 20.7434 195.705 20.707 195.705 20.669C195.709 20.6483 195.709 20.6269 195.704 20.6064C195.699 20.5858 195.689 20.5667 195.676 20.5504C195.662 20.534 195.645 20.5208 195.626 20.5118C195.607 20.5027 195.586 20.498 195.565 20.498C195.544 20.498 195.523 20.5027 195.504 20.5118C195.485 20.5208 195.468 20.534 195.454 20.5504C195.441 20.5667 195.431 20.5858 195.426 20.6064C195.421 20.6269 195.42 20.6483 195.425 20.669Z" fill="#F59595"/>
<path d="M195.987 21.77C195.985 21.7887 195.988 21.8076 195.994 21.8253C196 21.843 196.01 21.8591 196.023 21.8727C196.036 21.8862 196.052 21.8968 196.069 21.9038C196.087 21.9108 196.106 21.9139 196.124 21.9131C196.162 21.9131 196.199 21.898 196.226 21.8712C196.252 21.8443 196.267 21.808 196.267 21.77C196.267 21.7321 196.252 21.6957 196.226 21.6689C196.199 21.642 196.162 21.627 196.124 21.627C196.087 21.6284 196.052 21.6441 196.027 21.6707C196.001 21.6974 195.987 21.733 195.987 21.77Z" fill="#F59595"/>
<path d="M196.904 20.8227C196.904 20.8612 196.919 20.8982 196.946 20.9259C196.973 20.9536 197.009 20.9699 197.047 20.9713C197.066 20.9706 197.085 20.9662 197.102 20.9583C197.119 20.9505 197.134 20.9393 197.147 20.9255C197.16 20.9117 197.17 20.8956 197.176 20.8779C197.183 20.8603 197.186 20.8415 197.185 20.8227C197.185 20.7857 197.171 20.7502 197.145 20.7235C197.119 20.6968 197.084 20.6811 197.047 20.6797C197.009 20.6797 196.973 20.6948 196.946 20.7216C196.919 20.7484 196.904 20.7848 196.904 20.8227Z" fill="#F59595"/>
<path d="M192.762 20.5262C192.762 20.5627 192.776 20.5977 192.802 20.6235C192.828 20.6493 192.863 20.6638 192.899 20.6638C192.936 20.6638 192.971 20.6493 192.997 20.6235C193.022 20.5977 193.037 20.5627 193.037 20.5262C193.037 20.4897 193.022 20.4548 192.997 20.429C192.971 20.4032 192.936 20.3887 192.899 20.3887C192.863 20.3887 192.828 20.4032 192.802 20.429C192.776 20.4548 192.762 20.4897 192.762 20.5262Z" fill="#F59595"/>
<path d="M193.086 21.7704C193.085 21.7891 193.087 21.8079 193.094 21.8256C193.1 21.8433 193.11 21.8595 193.123 21.873C193.136 21.8866 193.152 21.8972 193.169 21.9041C193.186 21.9111 193.205 21.9143 193.224 21.9134C193.243 21.9134 193.261 21.9097 193.278 21.9025C193.295 21.8952 193.31 21.8846 193.323 21.8712C193.336 21.8578 193.346 21.842 193.353 21.8247C193.359 21.8074 193.362 21.7889 193.362 21.7704C193.362 21.7339 193.347 21.6989 193.321 21.6731C193.295 21.6473 193.26 21.6328 193.224 21.6328C193.187 21.6328 193.152 21.6473 193.127 21.6731C193.101 21.6989 193.086 21.7339 193.086 21.7704Z" fill="#F59595"/>
<path d="M191.557 20.9618C191.557 20.9983 191.571 21.0332 191.597 21.059C191.623 21.0848 191.658 21.0993 191.694 21.0993C191.731 21.0993 191.766 21.0848 191.791 21.059C191.817 21.0332 191.832 20.9983 191.832 20.9618C191.832 20.9253 191.817 20.8903 191.791 20.8645C191.766 20.8387 191.731 20.8242 191.694 20.8242C191.658 20.8242 191.623 20.8387 191.597 20.8645C191.571 20.8903 191.557 20.9253 191.557 20.9618Z" fill="#F59595"/>
<path d="M187.266 20.4708C187.266 20.5078 187.28 20.5434 187.306 20.5701C187.331 20.5968 187.366 20.6125 187.403 20.6139C187.422 20.6132 187.441 20.6088 187.458 20.6009C187.475 20.5931 187.49 20.5819 187.503 20.5681C187.516 20.5543 187.526 20.5381 187.532 20.5205C187.539 20.5029 187.542 20.4841 187.541 20.4653C187.541 20.4283 187.527 20.3927 187.501 20.3661C187.475 20.3394 187.44 20.3237 187.403 20.3223C187.384 20.323 187.366 20.3274 187.349 20.3352C187.332 20.3431 187.316 20.3542 187.304 20.368C187.291 20.3818 187.281 20.398 187.274 20.4156C187.268 20.4333 187.265 20.452 187.266 20.4708Z" fill="#F59595"/>
<path d="M186.297 21.1493C186.296 21.1678 186.299 21.1863 186.306 21.2036C186.312 21.2209 186.322 21.2368 186.335 21.2501C186.348 21.2635 186.364 21.2741 186.381 21.2814C186.398 21.2886 186.416 21.2923 186.435 21.2923C186.472 21.2909 186.507 21.2752 186.532 21.2485C186.558 21.2219 186.572 21.1863 186.572 21.1493C186.572 21.1128 186.558 21.0778 186.532 21.052C186.506 21.0262 186.471 21.0117 186.435 21.0117C186.398 21.0117 186.363 21.0262 186.337 21.052C186.311 21.0778 186.297 21.1128 186.297 21.1493Z" fill="#F59595"/>
<path d="M185.537 20.4224C185.536 20.4411 185.539 20.4599 185.546 20.4775C185.552 20.4952 185.562 20.5114 185.575 20.5252C185.588 20.539 185.603 20.5501 185.62 20.5579C185.638 20.5658 185.656 20.5702 185.675 20.5709C185.709 20.5643 185.739 20.5462 185.761 20.5196C185.783 20.493 185.795 20.4596 185.795 20.4251C185.795 20.3906 185.783 20.3573 185.761 20.3307C185.739 20.3041 185.709 20.2859 185.675 20.2793C185.638 20.2807 185.603 20.2964 185.577 20.3231C185.551 20.3498 185.537 20.3853 185.537 20.4224Z" fill="#F59595"/>
<path d="M184.618 20.7583C184.614 20.779 184.614 20.8004 184.62 20.821C184.625 20.8415 184.634 20.8606 184.648 20.877C184.661 20.8933 184.678 20.9065 184.697 20.9155C184.716 20.9246 184.737 20.9293 184.758 20.9293C184.779 20.9293 184.8 20.9246 184.819 20.9155C184.839 20.9065 184.855 20.8933 184.869 20.877C184.882 20.8606 184.892 20.8415 184.897 20.821C184.902 20.8004 184.903 20.779 184.899 20.7583C184.899 20.7213 184.884 20.6857 184.859 20.659C184.833 20.6324 184.798 20.6167 184.761 20.6152C184.723 20.6152 184.687 20.6303 184.66 20.6571C184.633 20.684 184.618 20.7203 184.618 20.7583Z" fill="#F59595"/>
<path d="M184.465 19.6802C184.464 19.699 184.467 19.7177 184.474 19.7353C184.48 19.753 184.49 19.7692 184.503 19.783C184.516 19.7968 184.531 19.8079 184.548 19.8158C184.565 19.8236 184.584 19.828 184.603 19.8287C184.636 19.8221 184.667 19.804 184.689 19.7774C184.711 19.7508 184.723 19.7174 184.723 19.6829C184.723 19.6485 184.711 19.6151 184.689 19.5885C184.667 19.5619 184.636 19.5437 184.603 19.5371C184.566 19.5385 184.531 19.5542 184.505 19.5809C184.479 19.6076 184.465 19.6432 184.465 19.6802Z" fill="#F59595"/>
<path d="M194.43 15.0028L196.537 16.1638C196.68 15.8778 196.709 15.5482 196.618 15.2417C196.527 14.9352 196.323 14.6748 196.047 14.5131C195.91 14.4366 195.758 14.3886 195.601 14.3719C195.444 14.3552 195.286 14.3701 195.135 14.4157C194.984 14.4614 194.844 14.5369 194.723 14.6377C194.602 14.7386 194.502 14.8627 194.43 15.0028Z" fill="#263238"/>
<path d="M193.829 25.5273L191.578 26.3692C191.628 26.52 191.707 26.6593 191.811 26.779C191.915 26.8987 192.042 26.9963 192.185 27.0661C192.328 27.1358 192.483 27.1763 192.641 27.1851C192.8 27.194 192.958 27.171 193.108 27.1175C193.411 26.998 193.656 26.7652 193.79 26.4684C193.925 26.1716 193.938 25.8341 193.829 25.5273Z" fill="#F59595"/>
<path d="M185.208 15.8228L187.134 14.3427C187.043 14.2163 186.929 14.1092 186.796 14.0277C186.664 13.9461 186.516 13.8917 186.363 13.8676C186.209 13.8436 186.052 13.8503 185.901 13.8875C185.75 13.9247 185.608 13.9915 185.483 14.0841C185.223 14.2832 185.049 14.5748 184.998 14.8985C184.947 15.2221 185.022 15.5531 185.208 15.8228Z" fill="#263238"/>
<path d="M185.801 18.441C185.81 18.6337 185.875 18.8196 185.988 18.9757C186.101 19.1318 186.258 19.2511 186.438 19.319C186.619 19.3868 186.815 19.4002 187.004 19.3573C187.192 19.3145 187.363 19.2174 187.496 19.0781C187.63 18.9387 187.719 18.7633 187.754 18.5735C187.788 18.3838 187.766 18.1881 187.691 18.0106C187.615 17.8332 187.489 17.6819 187.328 17.5755C187.167 17.4691 186.979 17.4123 186.786 17.4121C186.519 17.4193 186.266 17.5314 186.082 17.7241C185.897 17.9167 185.796 18.1744 185.801 18.441Z" fill="#263238"/>
<path d="M190.204 17.5059L189.879 23.4318L186.787 22.3753L190.204 17.5059Z" fill="#F59595"/>
<path d="M206.726 172.543V171.641C206.121 171.905 204.718 177.258 202.214 179.542C200.222 181.358 197.51 183.454 196.816 185.479C196.123 187.504 200.597 188.747 202.456 188.417C204.619 188.032 208.366 186.513 209.307 185.116C210.247 183.718 210.682 181.627 211.447 180.593C212.212 179.558 213.972 178.392 214.385 177.209C214.616 176.554 214.347 175.113 214.027 173.908C213.73 172.807 213.417 171.564 213.037 171.668C213.037 171.806 213.037 172.356 213.037 172.356C212.575 172.868 211.309 173.368 209.879 173.423C208.954 173.434 206.715 173.236 206.726 172.543Z" fill="#263238"/>
<path d="M184.784 162.55C184.454 162.55 184.189 163.023 183.463 163.804C182.383 164.894 181.13 165.798 179.755 166.478C177.389 167.661 172.794 169.477 170.714 170.418C169.416 171.001 169.476 172.569 170.819 173.461C172.162 174.352 175.402 175.001 179.298 174.126C181.416 173.653 184.178 171.694 185.901 171.799C187.623 171.904 190.919 171.882 192.212 170.996C193.505 170.11 192.982 168.206 192.619 166.594C192.223 164.817 191.651 162.093 191.062 162.192V162.742C190.302 163.887 186.44 164.36 184.773 163.513L184.784 162.55Z" fill="#263238"/>
<path d="M196.917 95.3408C193.649 94.3257 190.643 92.6052 188.113 90.3008C188.113 90.3008 189.813 93.4756 194.854 96.4303L194.578 113.784L196.917 95.3408Z" fill="#263238"/>
<path d="M81.4839 62.9979C71.1342 53.6882 59.9976 42.0124 59.8711 35.0356C64.669 34.9255 65.775 35.0356 68.9113 37.418C71.7064 39.5419 83.1786 54.0623 87.0687 56.5768C92.2188 57.8699 101.49 59.3775 105.947 59.46C106.737 59.4684 107.502 59.1864 108.098 58.6677C109.71 57.2811 110.965 57.3251 112.72 56.4668C114.101 55.7845 114.629 55.0032 114.921 55.2453C115.301 55.5534 115.774 56.4943 115.009 57.6113C114.507 58.2656 113.916 58.8471 113.254 59.339C114.915 59.1497 116.541 58.7293 118.085 58.0899C121.788 56.6043 123.631 57.0665 122.156 61.9415C121.232 64.9898 118.591 66.833 111.152 67.0256C108.416 67.1509 105.674 67.0792 102.948 66.811C97.5009 66.1012 91.2449 65.9912 86.7991 65.4299C84.8213 65.1785 82.9672 64.3301 81.4839 62.9979Z" fill="#9C5456"/>
<path d="M53.9555 3.30397H55.5567C59.2049 3.30397 62.7037 4.75322 65.2834 7.3329C67.8631 9.91257 69.3123 13.4114 69.3123 17.0596V33.3572H52.2554C50.6722 33.3558 49.1049 33.0425 47.6428 32.4353C46.1807 31.8282 44.8525 30.939 43.7341 29.8185C42.6157 28.698 41.7289 27.3682 41.1244 25.905C40.5199 24.4419 40.2095 22.8739 40.2109 21.2908V17.0486C40.2109 13.4004 41.6602 9.90157 44.2399 7.32189C46.8195 4.74222 50.3183 3.29297 53.9665 3.29297L53.9555 3.30397Z" fill="#263238"/>
<path d="M27.0716 163.028L27.7319 162.345C27.2257 163.407 25.1238 168.068 25.3384 171.633C25.509 174.467 26.0207 178.049 25.0523 180.085C24.0509 182.209 20.1003 179.435 18.9668 177.818C17.6132 175.942 16.3972 172.959 16.6228 170.428C16.7824 168.651 17.4097 166.967 17.5912 165.625C17.7728 164.282 17.2941 162.114 17.8608 160.909C18.169 160.244 19.4345 159.358 20.5679 158.67C21.6079 158.043 22.7688 157.349 22.9614 157.707L22.4552 158.224C22.4277 158.945 23.0054 160.26 24.0564 161.35C24.7276 162.059 26.5544 163.567 27.0716 163.028Z" fill="#FF6E64"/>
<path opacity="0.1" d="M27.0716 163.028L27.7319 162.345C27.2257 163.407 25.1238 168.068 25.3384 171.633C25.509 174.467 26.0207 178.049 25.0523 180.085C24.0509 182.209 20.1003 179.435 18.9668 177.818C17.6132 175.942 16.3972 172.959 16.6228 170.428C16.7824 168.651 17.4097 166.967 17.5912 165.625C17.7728 164.282 17.2941 162.114 17.8608 160.909C18.169 160.244 19.4345 159.358 20.5679 158.67C21.6079 158.043 22.7688 157.349 22.9614 157.707L22.4552 158.224C22.4277 158.945 23.0054 160.26 24.0564 161.35C24.7276 162.059 26.5544 163.567 27.0716 163.028Z" fill="black"/>
<path d="M25.5248 174.164C25.4643 173.295 25.3872 172.431 25.3377 171.628C25.1892 169.135 26.1686 166.126 26.9499 164.15C27.3956 163.05 31.5498 157.124 31.5498 157.124L25.7504 152.172L22.449 158.224L22.3335 158.34V158.378C21.6017 159.589 21.233 164.354 20.7984 167.287C20.5123 169.251 20.6718 172.239 22.317 174.346C23.9016 176.332 25.3652 176.657 25.5248 174.164Z" fill="#9C5456"/>
<path d="M62.2082 165.621C62.1182 165.646 62.0385 165.699 61.9802 165.772C61.922 165.845 61.8882 165.935 61.8836 166.028C61.8065 166.578 61.7185 167.58 61.5534 168.504C61.3278 169.737 61.1022 171.509 61.3223 172.488C61.5424 173.467 63.8479 174.859 65.3995 175.063C66.9511 175.267 69.6197 176.714 70.8687 177.814C72.3983 179.157 75.6392 180.235 77.818 180.263C80.3711 180.29 82.3739 179.712 82.9571 177.842C83.1992 177.066 82.561 176.119 79.2651 174.612C79.2651 174.612 77.6145 173.775 76.6516 173.203C71.8811 170.326 70.2415 168.669 68.8164 165.671L62.2082 165.621Z" fill="#FF6E64"/>
<path opacity="0.1" d="M62.2082 165.621C62.1182 165.646 62.0385 165.699 61.9802 165.772C61.922 165.845 61.8882 165.935 61.8836 166.028C61.8065 166.578 61.7185 167.58 61.5534 168.504C61.3278 169.737 61.1022 171.509 61.3223 172.488C61.5424 173.467 63.8479 174.859 65.3995 175.063C66.9511 175.267 69.6197 176.714 70.8687 177.814C72.3983 179.157 75.6392 180.235 77.818 180.263C80.3711 180.29 82.3739 179.712 82.9571 177.842C83.1992 177.066 82.561 176.119 79.2651 174.612C79.2651 174.612 77.6145 173.775 76.6516 173.203C71.8811 170.326 70.2415 168.669 68.8164 165.671L62.2082 165.621Z" fill="black"/>
<path d="M70.6389 168.118C69.8362 166.862 69.3823 165.415 69.3239 163.926L69.2194 159.859H62.1875V165.615V166.495C62.5837 169.29 65.2192 169.62 67.4201 171.166C68.5206 171.937 72.8013 175.227 75.6735 175.761C78.0174 176.19 78.8923 175.266 79.2059 174.605C76.1095 172.781 73.2347 170.604 70.6389 168.118Z" fill="#9C5456"/>
<path d="M39.484 123.242C36.3566 126.016 33.9092 129.473 32.3311 133.344C30.1632 138.863 23.9512 155.034 23.9512 155.034C23.9512 155.034 26.6693 159.804 30.3668 160.129C30.3668 160.129 47.9244 134.307 49.9438 128.271C51.9906 125.19 54.5491 110.014 56.4034 99.5161L56.4694 99.6316L59.6277 121.905C58.8106 124.518 58.2197 127.196 57.8615 129.91C57.3113 135.374 61.9387 161.823 61.9387 161.823C61.9387 161.823 65.0804 163.474 69.4272 162.016C69.4272 162.016 70.126 127.528 70.6212 120.942C71.4465 109.888 71.8482 78.7121 69.8234 72.1699L40.8541 73.7876C38.4496 80.7314 38.2625 85.1662 38.5706 92.7813C38.8567 100.65 39.484 123.242 39.484 123.242Z" fill="#37474F"/>
<path d="M56.4531 99.6308L58.1038 89.3471C58.1038 89.3471 65.0641 87.9 68.2224 84.9453C68.2224 84.9453 64.9211 89.0665 59.9691 90.4145L58.1203 98.3323L59.3803 120.193L56.4531 99.6308Z" fill="#263238"/>
<path d="M49.7693 35.3331C43.2711 35.7788 41.2298 38.4418 41.1858 42.3539C41.2123 45.4784 41.738 48.5786 42.7429 51.5372L45.6921 61.5403C45.6921 61.5403 43.2491 67.0865 40.8281 73.8213C52.1958 80.1654 66.386 76.831 69.8084 72.2036C69.9515 71.2187 69.0711 63.5431 68.5319 58.525C70.5347 53.507 71.063 50.3212 70.2156 47.0033C68.6475 40.8408 62.562 34.8379 59.8714 35.0525L49.7693 35.3331Z" fill="#FF6E64"/>
<path opacity="0.1" d="M49.7693 35.3331C43.2711 35.7788 41.2298 38.4418 41.1858 42.3539C41.2123 45.4784 41.738 48.5786 42.7429 51.5372L45.6921 61.5403C45.6921 61.5403 43.2491 67.0865 40.8281 73.8213C52.1958 80.1654 66.386 76.831 69.8084 72.2036C69.9515 71.2187 69.0711 63.5431 68.5319 58.525C70.5347 53.507 71.063 50.3212 70.2156 47.0033C68.6475 40.8408 62.562 34.8379 59.8714 35.0525L49.7693 35.3331Z" fill="black"/>
<path d="M64.1962 75.7687L54.1766 64.9678L41.3894 45.5449C41.6358 47.583 42.0893 49.5907 42.7429 51.5369L45.6921 61.5399C45.6921 61.5399 43.2491 67.0862 40.8281 73.8209C48.7899 78.2503 58.1382 77.9421 64.1962 75.7687Z" fill="#FF6E64"/>
<path opacity="0.1" d="M64.1962 75.7687L54.1766 64.9678L41.3894 45.5449C41.6358 47.583 42.0893 49.5907 42.7429 51.5369L45.6921 61.5399C45.6921 61.5399 43.2491 67.0862 40.8281 73.8209C48.7899 78.2503 58.1382 77.9421 64.1962 75.7687Z" fill="black"/>
<path d="M39.9074 7.97461L41.8772 11.1329C41.6749 11.2719 41.4463 11.3681 41.2055 11.4158C40.9647 11.4634 40.7168 11.4614 40.4767 11.4099C40.2367 11.3584 40.0098 11.2584 39.8097 11.1162C39.6096 10.974 39.4407 10.7924 39.3132 10.5827C39.0632 10.1536 38.9855 9.64559 39.0958 9.16141C39.2061 8.67724 39.4962 8.25303 39.9074 7.97461Z" fill="#263238"/>
<path d="M37.7578 11.5795L41.4443 11.0293C41.4949 11.273 41.4947 11.5244 41.4437 11.768C41.3927 12.0116 41.292 12.2421 41.1479 12.445C41.0039 12.6479 40.8195 12.8189 40.6064 12.9474C40.3932 13.0759 40.1559 13.159 39.9092 13.1917C39.4124 13.2495 38.9123 13.1145 38.512 12.8146C38.1118 12.5147 37.8418 12.0726 37.7578 11.5795Z" fill="#263238"/>
<path d="M64.525 9.18555C66.0602 10.0934 67.9584 13.9615 67.7713 22.0608C67.6118 28.9276 65.3889 30.6223 64.2719 31.112C63.155 31.6017 60.9981 31.3046 58.9017 30.9524V35.0736C58.9017 35.0736 61.8014 38.441 61.6143 40.3282C61.4273 42.2155 57.4326 42.6667 54.7255 40.8179C52.9675 39.5558 51.4598 37.9772 50.2797 36.163V26.204C50.2797 26.204 48.8656 28.0913 46.5492 26.5561C44.2328 25.021 44.1502 21.2135 45.4928 19.8489C46.8353 18.4843 49.735 18.9135 50.2797 20.8008C50.2797 20.8008 53.6196 20.9218 58.0709 18.4788C59.8017 17.5464 61.2881 16.2189 62.4095 14.6042C63.531 12.9894 64.2557 11.133 64.525 9.18555Z" fill="#9C5456"/>
<path d="M59.337 20.3338C59.339 20.5031 59.2911 20.6694 59.1993 20.8117C59.1075 20.9541 58.9758 21.0664 58.8208 21.1345C58.6657 21.2027 58.494 21.2237 58.327 21.195C58.1601 21.1664 58.0052 21.0892 57.8818 20.9733C57.7583 20.8573 57.6717 20.7076 57.6326 20.5427C57.5936 20.3779 57.6039 20.2052 57.6622 20.0462C57.7205 19.8871 57.8243 19.7487 57.9607 19.6482C58.0971 19.5477 58.26 19.4896 58.4292 19.4809C58.5448 19.4772 58.66 19.4964 58.7682 19.5373C58.8764 19.5782 58.9755 19.64 59.0598 19.7192C59.1442 19.7984 59.212 19.8934 59.2596 19.9989C59.3072 20.1043 59.3335 20.2181 59.337 20.3338Z" fill="#263238"/>
<path d="M60.3378 26.1543L62.3406 26.7981C62.304 26.9319 62.2409 27.0571 62.1549 27.166C62.0689 27.275 61.9619 27.3655 61.8403 27.4322C61.7186 27.499 61.5847 27.5406 61.4467 27.5545C61.3086 27.5684 61.1691 27.5544 61.0366 27.5134C60.7668 27.4214 60.5431 27.2284 60.4128 26.9749C60.2825 26.7214 60.2556 26.4272 60.3378 26.1543Z" fill="#7D3336"/>
<path d="M66.4177 17.6866L64.668 16.4706C64.742 16.3537 64.8389 16.2529 64.9529 16.1742C65.0668 16.0956 65.1954 16.0408 65.3311 16.0131C65.4667 15.9853 65.6065 15.9852 65.7422 16.0128C65.8778 16.0404 66.0065 16.095 66.1206 16.1735C66.3585 16.3365 66.5229 16.5863 66.5785 16.8693C66.634 17.1523 66.5763 17.4458 66.4177 17.6866Z" fill="#263238"/>
<path d="M66.0167 19.7224C66.0186 19.8918 65.9707 20.058 65.879 20.2004C65.7872 20.3428 65.6555 20.455 65.5005 20.5232C65.3454 20.5913 65.1737 20.6124 65.0067 20.5837C64.8398 20.555 64.6849 20.4779 64.5615 20.3619C64.438 20.2459 64.3514 20.0962 64.3123 19.9314C64.2733 19.7665 64.2836 19.5939 64.3419 19.4348C64.4002 19.2758 64.504 19.1374 64.6404 19.0369C64.7768 18.9364 64.9397 18.8782 65.1088 18.8696C65.2245 18.8659 65.3397 18.8851 65.4479 18.926C65.5561 18.9668 65.6552 19.0287 65.7395 19.1079C65.8238 19.1871 65.8917 19.2821 65.9393 19.3876C65.9868 19.493 66.0132 19.6068 66.0167 19.7224Z" fill="#263238"/>
<path d="M61.7969 19.2168L61.9344 24.4164L64.669 23.5691L61.7969 19.2168Z" fill="#7D3336"/>
<path d="M58.9028 30.9519C56.7019 30.6658 52.1516 29.3617 51.4473 27.5625C51.7285 28.4728 52.2838 29.2741 53.0374 29.8569C54.3965 31.0179 58.9028 32.3274 58.9028 32.3274V30.9519Z" fill="#7D3336"/>
<path d="M126.293 126.698L83.9695 102.235V64.8365L83.0781 64.3248V51.8457L126.293 76.7984V126.698Z" fill="#FF6E64"/>
<path opacity="0.1" d="M126.293 126.698L83.9695 102.235V64.8365L83.0781 64.3248V51.8457L126.293 76.7984V126.698Z" fill="black"/>
<path opacity="0.15" d="M126.292 89.2714L111.139 80.5228L111.133 68.0272L110.093 67.444L110.088 79.9176L83.9688 64.8359V66.6297L110.088 81.7058L110.082 117.338L111.144 117.949L111.139 82.3111L126.292 91.0596V89.2714Z" fill="black"/>
<path d="M126.293 126.698L168.385 102.411V64.9685L169.508 64.3248V51.8457L126.293 76.7984V126.698Z" fill="#FF6E64"/>
<path opacity="0.1" d="M168.385 64.9688L142.497 79.9183L142.492 67.4448L141.452 68.028V80.5236L126.293 89.2722V91.0604L141.446 82.3173L141.441 117.95L142.503 117.339L142.497 81.7176L168.385 66.7845V64.9688Z" fill="black"/>
<path d="M169.507 51.8456L126.293 26.8984L83.0781 51.8456L126.293 76.7983L169.507 51.8456Z" fill="#FF6E64"/>
<path opacity="0.4" d="M169.507 51.8456L126.293 26.8984L83.0781 51.8456L126.293 76.7983L169.507 51.8456Z" fill="white"/>
<path opacity="0.15" d="M119.019 52.3412L98.3633 43.0424L99.2822 42.4922L120.114 51.8515" fill="black"/>
<path opacity="0.15" d="M133.561 52.3412L154.217 43.0424L153.292 42.4922L132.461 51.8515" fill="black"/>
<path opacity="0.15" d="M142.492 67.4436L127.157 56.0594V56.0539L126.294 55.4102L126.288 55.4157V55.4102L125.419 56.0539L125.424 56.0594L110.084 67.4436L111.129 68.0268L126.288 56.7032L141.452 68.0268L142.492 67.4436Z" fill="black"/>
<path d="M153.304 61.2051V112.343L142.503 118.582L142.492 67.4446L153.304 61.2051Z" fill="#37474F"/>
<path d="M142.501 118.581L141.439 117.949L142.501 117.338V118.581Z" fill="#263238"/>
<path d="M99.2812 61.2051V112.343L110.082 118.582L110.093 67.4446L99.2812 61.2051Z" fill="#263238"/>
<path d="M110.084 118.581L111.146 117.949L110.084 117.338V118.581Z" fill="black"/>
<path d="M110.093 67.4442L126.297 55.4163L132.476 51.8453L153.302 42.4915L142.501 36.252L126.297 48.2799L120.124 51.8508L99.2812 61.2046L110.093 67.4442Z" fill="#455A64"/>
<path d="M120.124 51.8496L119.023 52.3393L122.66 53.9515L125.428 56.0533L126.297 55.4096L123.596 53.4067L120.124 51.8496Z" fill="#263238"/>
<path d="M142.49 67.4442L123.596 53.4079L99.2812 42.4915L110.088 36.252L128.999 50.2882L153.302 61.2046L142.49 67.4442Z" fill="#455A64"/>
<path d="M122.903 49.7988C122.903 49.7988 110.209 60.3356 89.4824 57.9366C89.4824 57.9366 98.286 63.6975 109.048 62.3935C109.048 62.3935 107.502 66.3221 98.4346 71.1035C98.4346 71.1035 121.087 71.3126 126.942 52.5059L122.903 49.7988Z" fill="#37474F"/>
<path d="M110.969 68.6926C117.241 66.3377 124.086 61.6938 126.925 52.5216L122.887 49.8145C120.433 51.6748 117.749 53.2115 114.903 54.3868C114.903 54.3868 119.305 56.3126 123.794 55.1241C122.777 58.185 121.101 60.9858 118.886 63.3299C116.67 65.674 113.968 67.5045 110.969 68.6926Z" fill="#263238"/>
<path d="M94.7589 36.0151C94.7589 36.0151 97.2789 33.0659 105.01 34.3975C109.675 35.2063 117.599 40.6425 121.516 49.6992C122.011 50.8437 123.123 51.2288 123.717 51.9991C123.855 52.1716 124.006 52.3335 124.168 52.4833L126.617 52.5108C126.617 44.0484 121.868 35.5089 117.379 30.5679C112.889 25.6269 105.494 23.2114 100.223 23.0243C98.3533 22.938 96.4903 23.2962 94.7864 24.0698C93.3503 28.0699 92.7561 32.037 94.7589 36.0151Z" fill="#37474F"/>
<path d="M120.979 48.561C120.979 48.561 125.38 47.0754 123.57 40.0215C125.469 43.9195 126.504 48.1821 126.602 52.5171L124.153 52.4896C123.991 52.3397 123.84 52.1779 123.702 52.0054C123.108 51.2351 121.996 50.8499 121.501 49.7054C121.342 49.3093 121.16 48.9351 120.979 48.561Z" fill="#263238"/>
<path d="M99.2712 41.4343C97.4166 39.9489 95.8819 38.1034 94.7594 36.0091C92.7511 32.031 93.3453 28.0639 94.7594 24.0527C90.2255 26.0556 87.5184 31.9485 86.506 36.7079C85.9558 39.371 85.8898 41.6599 86.341 42.7604C87.612 45.7536 95.0565 57.8475 126.942 52.5213L126.909 49.1705C118.925 48.6753 104.983 46.2433 99.2712 41.4343Z" fill="#37474F"/>
<path d="M94.7589 36.0151C94.7589 36.0151 94.3792 26.6943 100.223 23.0243C98.3533 22.938 96.4903 23.2962 94.7864 24.0698C93.3503 28.0699 92.7561 32.037 94.7589 36.0151Z" fill="#263238"/>
<path d="M129.681 49.7988C129.681 49.7988 142.375 60.3356 163.102 57.9366C163.102 57.9366 154.298 63.6975 143.536 62.3935C143.536 62.3935 145.082 66.3221 154.15 71.1035C154.15 71.1035 131.497 71.3126 125.643 52.5059L129.681 49.7988Z" fill="#37474F"/>
<path d="M128.791 55.1128C133.259 56.3012 137.683 54.3755 137.683 54.3755L136.852 54.0013L136.726 53.9463L135.988 53.5996L135.823 53.5226L135.152 53.187C135.095 53.1609 135.04 53.1315 134.987 53.0989C134.772 52.9944 134.569 52.8844 134.365 52.7798L134.2 52.6918L133.65 52.3781L133.49 52.2901L132.973 51.993L132.83 51.9105L132.346 51.6353L132.214 51.5583L131.796 51.2942L131.675 51.2172L131.306 50.9751L131.196 50.9035L130.877 50.689L130.783 50.6229L130.514 50.4359L130.431 50.3753L130.217 50.2213L130.145 50.1662L129.985 50.0452L129.914 49.9902L129.815 49.9186L129.749 49.8691L129.716 49.8361L129.677 49.8086L128.357 50.6945L125.639 52.5157C131.488 71.3224 154.14 71.1133 154.146 71.1133C142.492 70.5631 130.25 61.721 128.791 55.1128Z" fill="#263238"/>
<path d="M157.827 36.0151C157.827 36.0151 155.307 33.0659 147.576 34.3975C142.91 35.2063 134.987 40.6425 131.069 49.6992C130.574 50.8437 129.463 51.2288 128.868 51.9991C128.73 52.1716 128.58 52.3335 128.417 52.4833L125.969 52.5108C125.969 44.0484 130.717 35.5089 135.207 30.5679C139.697 25.6269 147.092 23.2114 152.363 23.0243C154.232 22.938 156.095 23.2962 157.799 24.0698C159.235 28.0699 159.857 32.037 157.827 36.0151Z" fill="#37474F"/>
<path d="M131.608 48.561C131.608 48.561 127.206 47.0754 129.016 40.0215C127.117 43.9195 126.083 48.1821 125.984 52.5171L128.433 52.4896C128.595 52.3397 128.746 52.1779 128.884 52.0054C129.478 51.2351 130.59 50.8499 131.085 49.7054C131.245 49.3093 131.426 48.9351 131.608 48.561Z" fill="#263238"/>
<path d="M153.313 41.4343C155.168 39.9489 156.703 38.1034 157.825 36.0091C159.834 32.031 159.239 28.0639 157.825 24.0527C162.359 26.0556 165.066 31.9485 166.079 36.7079C166.629 39.371 166.695 41.6599 166.244 42.7604C164.973 45.7536 157.528 57.8475 125.643 52.5213L125.676 49.1705C133.659 48.6753 147.602 46.2433 153.313 41.4343Z" fill="#37474F"/>
<path d="M157.827 36.0151C157.827 36.0151 158.207 26.6943 152.363 23.0243C154.233 22.938 156.096 23.2962 157.799 24.0698C159.236 28.0699 159.857 32.037 157.827 36.0151Z" fill="#263238"/>
<path d="M130.695 50.2986C130.661 49.9748 130.54 49.6662 130.347 49.4042C130.154 49.1422 129.894 48.9362 129.595 48.8075C128.536 48.4357 127.414 48.2749 126.294 48.3343C125.141 48.2749 123.989 48.4625 122.915 48.8845C122.64 49.0169 122.404 49.2182 122.229 49.4689C122.055 49.7195 121.948 50.011 121.919 50.3151C121.804 51.3165 121.732 53.0112 122.393 53.9741C123.48 54.9058 124.873 55.4052 126.305 55.3772C127.731 55.4081 129.117 54.908 130.195 53.9741C130.85 52.9947 130.784 51.3 130.695 50.2986Z" fill="#455A64"/>
<path d="M52.9766 68.6605C41.6145 51.521 36.1232 37.4298 45.3285 36.1973C48.1401 36.852 50.121 40.0929 52.575 47.3173C52.575 47.3173 57.6095 58.2227 59.8709 62.8886C64.1077 66.2835 72.2675 73.8931 76.3777 75.6153C77.1095 75.9125 78.1824 75.2742 78.9252 75.0101C80.928 74.3113 82.0835 74.801 84.0368 74.6304C85.5664 74.4984 86.3477 73.9647 86.5348 74.2948C86.7621 74.673 86.8317 75.1254 86.7288 75.5545C86.6259 75.9836 86.3587 76.3552 85.9846 76.5892C85.3958 77.0389 84.6959 77.3203 83.9597 77.4036C83.9597 77.4036 84.8841 78.1023 88.4386 78.0913C92.4277 78.0913 93.9793 79.1533 90.8321 83.1589C88.8567 85.6624 85.7315 86.4217 78.7271 83.9017C76.1342 83.024 73.6077 81.9611 71.167 80.7214C66.3526 78.0803 68.0583 79.1863 64.2727 76.7873C61.208 74.845 54.0826 70.3442 52.9766 68.6605Z" fill="#9C5456"/>
<path d="M199.61 68.6597C213.124 50.2602 218.12 37.6876 208.909 36.4551C206.103 37.1098 204.117 40.3562 201.663 47.5806C201.663 47.5806 194.977 58.2275 192.722 62.8934C188.479 66.2882 180.319 73.8978 176.215 75.62C175.488 75.9172 174.41 75.2789 173.667 75.0148C171.664 74.316 170.509 74.8057 168.556 74.6351C167.026 74.5031 166.245 73.9694 166.058 74.2995C165.83 74.6778 165.761 75.1301 165.864 75.5592C165.967 75.9883 166.234 76.3599 166.608 76.5939C167.197 77.0436 167.896 77.3251 168.633 77.4083C168.633 77.4083 167.708 78.1071 164.154 78.0961C160.17 78.0961 158.619 79.158 161.76 83.1636C163.736 85.6671 166.861 86.4264 173.865 83.9064C176.458 83.0287 178.985 81.9659 181.425 80.7261C186.245 78.085 184.534 79.191 188.32 76.792C191.384 74.8442 198.427 70.2719 199.61 68.6597Z" fill="#FFB3B2"/>
<path d="M207.727 36.1465C207.727 36.1465 210.99 36.1465 212.635 37.7531C214.28 39.3598 214.896 42.3145 213.235 46.8538C211.573 51.3932 207.034 58.8212 207.034 58.8212C207.034 58.8212 201.686 59.1128 196.932 54.2929L201.675 45.4563C201.675 45.4563 203.507 38.8041 207.727 36.1465Z" fill="#FF6E64"/>
<path opacity="0.1" d="M207.727 36.1465C207.727 36.1465 210.99 36.1465 212.635 37.7531C214.28 39.3598 214.896 42.3145 213.235 46.8538C211.573 51.3932 207.034 58.8212 207.034 58.8212C207.034 58.8212 201.686 59.1128 196.932 54.2929L201.675 45.4563C201.675 45.4563 203.507 38.8041 207.727 36.1465Z" fill="black"/>
</svg>
