<svg width="390" height="448" viewBox="0 0 390 448" fill="none" xmlns="http://www.w3.org/2000/svg">
<g opacity="0.4">
<path d="M603.392 431.303C604.618 428.836 603.609 425.846 601.142 424.619C600.641 424.373 600.126 424.22 599.604 424.148L602.115 357.943C603.747 357.762 605.25 356.79 606.033 355.208C607.26 352.74 606.251 349.75 603.784 348.524C601.933 347.602 599.792 347.936 598.319 349.199L511.07 273.481C511.164 273.336 511.252 273.184 511.331 273.024C512.558 270.557 511.549 267.567 509.082 266.34C506.615 265.114 503.625 266.123 502.398 268.59C502.246 268.902 502.13 269.214 502.043 269.541L438.233 262.465C438.168 260.702 437.159 259.025 435.468 258.184C433.001 256.957 430.011 257.966 428.785 260.433C428.284 261.435 428.161 262.523 428.349 263.546L361.579 286.268C361.107 285.353 360.36 284.577 359.373 284.083C358.292 283.546 357.109 283.437 356.02 283.691L294.773 128.801C295.593 128.33 296.289 127.618 296.746 126.704C297.973 124.237 296.964 121.247 294.497 120.02C292.03 118.794 289.04 119.803 287.813 122.27C287.501 122.901 287.334 123.569 287.298 124.229L86.9946 143.257C87.6985 140.964 86.6681 138.438 84.4475 137.335C81.9801 136.109 78.9903 137.118 77.7639 139.585C77.6913 139.723 77.6333 139.868 77.5752 140.013L5.28979 123.852C5.42767 121.893 4.40446 119.955 2.53946 119.026C0.297089 117.909 -2.38069 118.649 -3.76675 120.645L-87.6849 78.9322C-86.9302 76.6173 -87.9607 74.0411 -90.2031 72.9308C-91.5311 72.2705 -93.0115 72.2632 -94.2887 72.7784L-131.865 8.8311C-131.342 8.39569 -130.892 7.85869 -130.573 7.20557C-129.346 4.73824 -130.355 1.7484 -132.823 0.521997C-135.29 -0.704411 -138.28 0.304318 -139.506 2.77165C-140.631 5.02852 -139.876 7.7208 -137.852 9.10686L-209.419 148.961C-211.748 148.17 -214.353 149.2 -215.478 151.464C-216.704 153.932 -215.696 156.922 -213.228 158.148C-212.343 158.591 -211.392 158.736 -210.478 158.634L-191.494 231.66C-192.554 232.11 -193.461 232.915 -194.012 234.026C-195.239 236.493 -194.23 239.483 -191.763 240.709C-189.295 241.936 -186.305 240.927 -185.079 238.46C-184.723 237.741 -184.557 236.979 -184.564 236.224L-122.808 226.87C-122.423 228.133 -121.538 229.243 -120.261 229.875C-118.918 230.542 -117.416 230.542 -116.125 230.013L-87.5253 274.911C-87.9389 275.303 -88.2945 275.767 -88.563 276.304C-89.7894 278.771 -88.7807 281.761 -86.3134 282.988C-83.8461 284.214 -80.8563 283.205 -79.6299 280.738C-79.6299 280.738 -79.6299 280.731 -79.6299 280.723L-79.9129 281.413L71.1529 343.285C70.6086 345.505 71.6391 347.886 73.7726 348.945C74.8249 349.468 75.9715 349.584 77.0382 349.351L101.066 413.291C100.209 413.763 99.4909 414.489 99.0192 415.432C97.7928 417.9 98.8015 420.889 101.269 422.116C103.736 423.342 106.726 422.333 107.952 419.866C108.388 418.995 108.533 418.052 108.446 417.152L208.445 391.891C208.888 392.958 209.708 393.887 210.825 394.438C213.293 395.665 216.283 394.656 217.509 392.189C217.973 391.252 218.119 390.236 217.981 389.271L278.554 371.347C279.011 372.341 279.802 373.19 280.854 373.713C283.321 374.939 286.311 373.93 287.538 371.463C287.625 371.289 287.697 371.107 287.763 370.926L401.724 391.412C401.71 393.263 402.718 395.048 404.489 395.926C405.795 396.579 407.254 396.593 408.516 396.1L449.155 464.416C448.589 464.859 448.11 465.432 447.761 466.114C446.535 468.581 447.544 471.571 450.011 472.798C452.413 473.988 455.309 473.066 456.593 470.744L546.912 494.866C546.875 496.738 547.884 498.552 549.677 499.438C552.144 500.664 555.134 499.655 556.36 497.188C557.267 495.359 556.948 493.247 555.722 491.774L596.766 433.582C599.219 434.764 602.18 433.756 603.392 431.31V431.303ZM547.42 492.739C547.311 492.957 547.231 493.175 547.151 493.4L465.584 471.615L457.101 469.351C457.159 469.06 457.195 468.77 457.21 468.48L547.333 444.198L551.012 490.062C549.51 490.33 548.153 491.273 547.427 492.747L547.42 492.739ZM78.1993 339.975C77.6115 339.685 76.9947 339.518 76.3779 339.475L71.5448 268.256L85.1586 333.452L78.7944 340.331C78.6057 340.201 78.4098 340.084 78.2066 339.983L78.1993 339.975ZM-84.5863 273.525L-92.7285 227.226L-56.3136 228.046C-56.1612 229.229 -55.5879 230.339 -54.6663 231.152L-82.431 273.793C-83.1349 273.539 -83.8678 273.459 -84.5863 273.525ZM-187.343 231.74C-188.229 231.297 -189.179 231.152 -190.094 231.253L-209.077 158.228C-208.526 157.996 -208.018 157.655 -207.575 157.234L-152.423 199.788L-186.501 232.269C-186.763 232.066 -187.046 231.892 -187.343 231.74ZM502.21 272.567C502.638 273.699 503.48 274.678 504.648 275.259C505.671 275.767 506.781 275.89 507.826 275.68L539.815 365.955C539.59 366.078 539.372 366.216 539.161 366.369L454.83 282.944L502.21 272.559V272.567ZM456.535 465.802L539.379 374.504C539.553 374.62 539.735 374.729 539.931 374.83C540.54 375.135 541.179 375.295 541.817 375.338L547.224 442.703L457.043 466.999C456.927 466.578 456.76 466.172 456.542 465.795L456.535 465.802ZM547.086 369.685L560.852 365.658L594.959 424.663L546.084 373.43C546.288 373.168 546.462 372.893 546.614 372.588C547.079 371.652 547.224 370.643 547.086 369.685ZM546.672 368.277C546.215 367.283 545.424 366.427 544.365 365.897C543.341 365.389 542.231 365.266 541.186 365.476L510.214 278.06L560.09 364.351L546.672 368.277ZM533.625 362.965L479.75 322.015L436.941 289.475C436.978 289.417 437.014 289.359 437.043 289.294C437.45 288.474 437.609 287.588 437.551 286.732L453.124 283.321L533.632 362.965H533.625ZM437.232 285.302C436.804 284.17 435.962 283.191 434.793 282.61C434.358 282.392 433.901 282.247 433.444 282.168L433.85 267.588C434.714 267.487 435.541 267.153 436.245 266.623L451.883 282.095L437.239 285.302H437.232ZM431.027 267.102C431.463 267.32 431.92 267.465 432.377 267.545L431.971 282.124C430.36 282.32 428.879 283.292 428.103 284.853C427.849 285.361 427.696 285.898 427.624 286.435L362.051 287.697C362.051 287.697 362.044 287.654 362.036 287.632L428.807 264.918C429.278 265.832 430.026 266.609 431.013 267.102H431.027ZM210.55 385.621L181.392 348.88L230.84 304.627C231.13 304.867 231.449 305.085 231.805 305.259C231.928 305.317 232.052 305.375 232.182 305.426L213.452 384.968C212.436 384.881 211.421 385.113 210.542 385.614L210.55 385.621ZM-206.48 151.581L-118.454 94.9626L-107.561 151.762C-108.744 152.176 -109.775 153.032 -110.377 154.244C-110.595 154.679 -110.74 155.136 -110.82 155.601L-206.066 153.032C-206.124 152.531 -206.262 152.038 -206.472 151.581H-206.48ZM-133.135 9.54225L-95.5659 73.4751C-96.1101 73.9105 -96.5746 74.4693 -96.9011 75.1369C-97.5905 76.5302 -97.576 78.0904 -96.981 79.4112L-117.424 92.5606L-133.323 9.62211C-133.258 9.60034 -133.193 9.57129 -133.135 9.54952V9.54225ZM-74.3831 146.109L-101.321 154.556C-101.763 153.482 -102.583 152.553 -103.701 151.994C-103.919 151.885 -104.143 151.798 -104.368 151.726L-92.5398 82.3285C-92.3075 82.3285 -92.0681 82.3284 -91.8431 82.2994L-74.3831 146.109ZM-4.17313 125.623C-3.81029 126.37 -3.25876 127.038 -2.54034 127.531L-49.8332 222.676C-50.5371 222.444 -51.2628 222.378 -51.9667 222.465L-72.598 147.081L-4.18039 125.623H-4.17313ZM82.4446 146.748C82.6768 146.74 82.909 146.704 83.134 146.66L115.042 239.2L74.2733 255.012C73.8017 254.287 73.1413 253.67 72.314 253.256C72.0383 253.118 71.7552 253.017 71.4722 252.937L80.1587 168.881L82.4446 146.748ZM352.167 288.285L271.507 296.326L257.284 213.939C257.973 213.714 258.612 213.329 259.156 212.814L352.82 286.057C352.777 286.137 352.726 286.21 352.69 286.297C352.37 286.935 352.211 287.61 352.174 288.278L352.167 288.285ZM74.97 258.764C75.1442 257.951 75.1079 257.124 74.883 256.355L115.521 240.593L129.404 280.839C128.083 281.093 126.878 281.87 126.124 283.067L74.97 258.764ZM-94.6588 81.8204C-94.4411 81.9293 -94.2161 82.0164 -93.9911 82.0889L-105.849 151.486C-105.943 151.486 -106.038 151.486 -106.132 151.486L-117.133 94.1136L-96.19 80.6448C-95.7763 81.1238 -95.2611 81.5302 -94.6588 81.8277V81.8204ZM253.496 213.677C253.619 213.735 253.742 213.786 253.866 213.837L234.889 293.982L234.446 295.839C233.22 295.738 232.001 296.093 231.029 296.826L186.892 253.307L251.921 212.465C252.342 212.959 252.872 213.38 253.488 213.685L253.496 213.677ZM230.005 297.864C229.838 298.089 229.693 298.329 229.563 298.583C229.432 298.851 229.33 299.127 229.243 299.403L206.616 296.282L135.274 286.449C135.311 286.195 135.325 285.941 135.325 285.694L185.63 254.098L230.013 297.864H230.005ZM135.064 284.127C134.919 283.713 134.723 283.314 134.476 282.944L146.044 252.654L155.151 228.801C156.552 229.113 158.01 228.801 159.149 227.981L184.556 253.031L135.064 284.12V284.127ZM151.936 226.471C152.364 227.204 152.996 227.835 153.779 228.278L144.628 252.24L133.359 281.761C133.112 281.572 132.851 281.406 132.56 281.268C132.038 281.006 131.486 280.854 130.942 280.789L116.9 240.063L151.943 226.479L151.936 226.471ZM236.246 296.333C236.123 296.275 235.999 296.224 235.876 296.173L255.295 214.171C255.477 214.185 255.658 214.193 255.832 214.185L270.041 296.463L238.859 299.569C238.518 298.205 237.603 296.993 236.246 296.318V296.333ZM251.152 211.21L185.826 252.24L160.194 226.965C160.383 226.718 160.55 226.449 160.695 226.166C161.036 225.477 161.196 224.751 161.21 224.033L250.949 210.666C251.007 210.854 251.072 211.036 251.152 211.217V211.21ZM151.385 225.114L116.414 238.677L84.52 146.189C84.6724 146.109 84.8248 146.022 84.9699 145.927L152.321 220.847C152.11 221.116 151.922 221.406 151.762 221.725C151.218 222.821 151.116 224.011 151.385 225.114ZM-53.3746 222.857C-53.5197 222.923 -53.6576 222.988 -53.7882 223.06L-102.329 159.926C-101.981 159.57 -101.683 159.149 -101.451 158.678C-101.016 157.807 -100.871 156.878 -100.958 155.978L-73.9913 147.517L-53.3746 222.85V222.857ZM74.4548 260.143L125.536 284.403C125.1 285.963 125.47 287.617 126.457 288.851L86.385 332.131L71.8206 262.4C72.9091 262.001 73.8524 261.224 74.4548 260.143ZM127.531 289.845C127.72 289.976 127.916 290.092 128.119 290.201C128.286 290.288 128.46 290.361 128.634 290.419L103.751 412.638C103.562 412.631 103.381 412.638 103.192 412.638L86.7479 333.894L127.524 289.845H127.531ZM134.839 287.871L229.047 300.854C229.062 301.812 229.345 302.741 229.867 303.539L180.477 347.733L133.975 289.141C134.302 288.793 134.578 288.401 134.803 287.951C134.817 287.922 134.824 287.9 134.839 287.871ZM239.011 301.043L270.295 297.922L281.776 364.409C281.485 364.489 281.202 364.591 280.934 364.721L237.509 304.381C237.901 303.996 238.242 303.546 238.503 303.031C238.822 302.392 238.982 301.717 239.018 301.05L239.011 301.043ZM285.288 364.75C284.628 364.424 283.924 364.257 283.234 364.235L271.761 297.777L352.312 289.744C352.486 290.448 352.82 291.108 353.285 291.674L286.122 365.273C285.868 365.077 285.593 364.903 285.295 364.75H285.288ZM353.713 284.911L260.049 211.667C260.092 211.587 260.143 211.515 260.179 211.428C261.333 209.098 260.506 206.312 258.336 204.969L290.977 129.28C291.783 129.498 292.61 129.498 293.394 129.317L354.642 284.207C354.308 284.403 353.996 284.635 353.706 284.911H353.713ZM289.642 128.7L257.001 204.389C254.845 203.815 252.516 204.759 251.384 206.754L205.296 188.975L288.72 127.974C288.996 128.25 289.301 128.496 289.642 128.707V128.7ZM250.854 208.119C250.774 208.481 250.731 208.844 250.731 209.207L161.014 222.574C160.92 222.248 160.797 221.928 160.637 221.624L203.888 189.998L250.847 208.119H250.854ZM159.781 220.441C159.403 220.056 158.961 219.73 158.453 219.476C156.769 218.641 154.846 218.844 153.395 219.838L86.0585 144.941C86.1455 144.839 86.2254 144.73 86.298 144.621L202.262 189.367L159.774 220.441H159.781ZM79.999 146.232C80.3183 146.392 80.6521 146.508 80.9859 146.595L71.6681 236.776L70.0209 252.734C69.6072 252.734 69.1936 252.799 68.7945 252.908L28.9979 176.762L78.4678 145.042C78.8887 145.521 79.404 145.927 80.0063 146.225L79.999 146.232ZM67.4447 253.503C66.7045 253.967 66.0804 254.62 65.6522 255.455L-46.408 227.886C-46.3282 227.023 -46.4733 226.152 -46.8216 225.375L27.757 177.56L67.4447 253.503ZM-47.6126 224.142C-47.8739 223.837 -48.1787 223.568 -48.5197 223.336L-1.22685 128.192C-0.167358 128.533 0.942932 128.511 1.94438 128.163L27.0749 176.254L-47.6126 224.142ZM-4.61583 124.229L-72.9826 145.673L-90.428 81.922C-89.608 81.5592 -88.8896 80.9787 -88.3526 80.2094L-4.4344 121.922C-4.68114 122.684 -4.7392 123.475 -4.61583 124.237V124.229ZM-134.767 9.91962L-118.759 93.4097L-207.278 150.347C-207.525 150.064 -207.815 149.803 -208.134 149.578L-136.553 9.69466C-135.965 9.88334 -135.362 9.95591 -134.767 9.91962ZM-206.675 156.065C-206.639 155.993 -206.596 155.927 -206.559 155.855C-206.342 155.419 -206.196 154.962 -206.117 154.498L-110.871 157.067C-110.769 157.879 -110.471 158.663 -110 159.338L-151.349 198.757L-206.675 156.065ZM-108.984 160.405C-108.723 160.608 -108.447 160.782 -108.142 160.935C-108.113 160.949 -108.077 160.964 -108.04 160.978L-117.699 220.405C-119.1 220.303 -120.493 220.811 -121.509 221.791L-150.166 199.679L-108.977 160.412L-108.984 160.405ZM-115.842 220.905C-115.987 220.833 -116.125 220.775 -116.27 220.717L-106.625 161.399C-106.35 161.443 -106.067 161.457 -105.791 161.45L-94.4846 225.716L-113.077 225.296C-113.106 223.489 -114.114 221.761 -115.842 220.905ZM-104.347 161.196C-104.136 161.123 -103.933 161.036 -103.737 160.942L-54.9711 223.968C-55.3122 224.323 -55.6097 224.737 -55.8346 225.201C-56.0596 225.644 -56.2047 226.108 -56.2846 226.58L-92.997 225.753L-104.354 161.203L-104.347 161.196ZM-79.3976 276.87C-79.7169 275.941 -80.312 275.099 -81.1393 274.49L-53.4399 231.95C-51.0016 233.068 -48.0989 232.059 -46.9015 229.642C-46.8507 229.534 -46.7999 229.425 -46.7563 229.309L-17.3226 236.551L65.1878 256.848C65.1588 257.001 65.1443 257.153 65.1298 257.306L-79.3976 276.87ZM79.8684 341.325L85.5287 335.215L100.819 408.444L78.4025 348.807C79.2588 348.335 79.9773 347.61 80.4489 346.666C81.3416 344.867 81.044 342.798 79.8684 341.325ZM105.703 413.146C105.536 413.059 105.362 412.987 105.188 412.929L130.071 290.709C131.036 290.76 131.994 290.527 132.829 290.048L179.382 348.713L106.668 413.778C106.378 413.538 106.058 413.32 105.703 413.146ZM107.648 414.873L180.303 349.867L209.403 386.535C209.077 386.884 208.801 387.276 208.576 387.726C208.14 388.596 207.995 389.54 208.082 390.44L108.083 415.693C107.967 415.403 107.814 415.135 107.648 414.873ZM215.259 385.476C215.136 385.418 215.013 385.36 214.882 385.309L233.612 305.767C234.548 305.847 235.484 305.651 236.311 305.23L279.715 365.534C279.272 365.941 278.887 366.427 278.604 367C278.14 367.936 277.995 368.952 278.133 369.917L217.56 387.842C217.103 386.848 216.312 385.998 215.259 385.476ZM287.196 366.419C287.196 366.419 287.16 366.361 287.138 366.332L354.366 292.661C354.547 292.784 354.729 292.893 354.925 292.995C356.122 293.59 357.436 293.655 358.618 293.285L371.441 319.954L287.204 366.419H287.196ZM359.946 292.654C360.636 292.189 361.216 291.543 361.615 290.745C361.869 290.237 362.022 289.7 362.094 289.163L427.667 287.9C427.718 288.212 427.798 288.517 427.914 288.808L372.74 319.243L359.961 292.646L359.946 292.654ZM428.611 290.099C429.061 290.687 429.641 291.188 430.352 291.543C430.461 291.594 430.563 291.638 430.672 291.681L412.188 366.173L407.152 386.47C406.47 386.405 405.788 386.485 405.142 386.695L373.357 320.563L428.603 290.092L428.611 290.099ZM408.923 386.971C408.807 386.913 408.698 386.869 408.582 386.818L413.509 366.956L432.101 292.03C432.196 292.037 432.297 292.044 432.391 292.051L442.696 385.157L411.492 390.033C411.114 388.749 410.229 387.609 408.93 386.971H408.923ZM433.843 291.892C434.663 291.674 435.432 291.246 436.049 290.643L468.545 315.346L537.775 367.972C537.739 368.031 537.703 368.089 537.674 368.147C537.311 368.872 537.151 369.642 537.159 370.404L444.14 384.939L433.843 291.899V291.892ZM537.391 371.848C537.579 372.457 537.884 373.023 538.291 373.524L455.599 464.648C455.258 464.336 454.873 464.068 454.445 463.85C453.922 463.589 453.371 463.436 452.827 463.371L444.307 386.398L537.391 371.855V371.848ZM543.269 375.222C543.893 375.077 544.488 374.808 545.018 374.438L594.662 426.477C594.589 426.601 594.517 426.724 594.451 426.855C593.936 427.892 593.82 429.032 594.038 430.084L548.646 442.312L543.262 375.215L543.269 375.222ZM598.131 424.162C597.608 424.249 597.107 424.409 596.636 424.656L562.289 365.237L597.028 355.07C597.485 356.064 598.276 356.92 599.335 357.45C599.756 357.66 600.192 357.798 600.634 357.885L598.123 424.169L598.131 424.162ZM597.361 350.302C597.267 350.447 597.18 350.6 597.1 350.759C596.636 351.695 596.491 352.704 596.628 353.662L561.549 363.93L509.974 274.7C510.025 274.664 510.076 274.628 510.12 274.584L597.369 350.302H597.361ZM501.883 270.977C501.883 271.028 501.89 271.079 501.898 271.13L453.589 281.718L437.275 265.578C437.442 265.353 437.595 265.114 437.725 264.853C437.878 264.541 438.001 264.229 438.081 263.902L501.89 270.977H501.883ZM287.429 125.659C287.523 126.051 287.668 126.421 287.857 126.777L203.67 188.336L89.8538 144.418L287.429 125.652V125.659ZM77.2486 141.406C77.1906 142.234 77.3358 143.061 77.6768 143.816L28.323 175.463L3.25063 127.488C3.88197 127.031 4.4117 126.421 4.7818 125.681C4.85437 125.543 4.91243 125.398 4.97049 125.253L77.2559 141.414L77.2486 141.406ZM-184.796 234.744C-184.948 234.243 -185.181 233.764 -185.485 233.336L-151.248 200.695L-122.409 222.952C-122.445 223.024 -122.489 223.089 -122.525 223.162C-122.881 223.88 -123.048 224.643 -123.04 225.397L-184.796 234.751V234.744ZM-114.891 229.222C-114.368 228.786 -113.918 228.242 -113.599 227.596C-113.461 227.32 -113.36 227.045 -113.28 226.762L-94.2379 227.19L-86.0231 273.88C-86.132 273.924 -86.2408 273.974 -86.3497 274.033L-114.898 229.222H-114.891ZM-79.4049 280.107C-79.2017 279.519 -79.1074 278.909 -79.1291 278.314L65.2241 258.771C65.5361 260.201 66.465 261.485 67.8801 262.189C68.4679 262.48 69.0847 262.647 69.7016 262.69L74.9193 339.569C73.6057 339.859 72.4301 340.672 71.7045 341.891L-79.3686 280.019L-79.3976 280.099L-79.4049 280.107ZM288.053 369.467C288.082 368.88 288.002 368.306 287.835 367.755L372.08 321.289L403.843 387.363C403.183 387.827 402.624 388.451 402.247 389.228C402.13 389.467 402.036 389.707 401.964 389.953L288.06 369.475L288.053 369.467ZM409.779 395.36C410.345 394.917 410.824 394.344 411.165 393.662C411.514 392.965 411.673 392.225 411.68 391.492L442.849 386.623L451.346 463.414C451.027 463.473 450.715 463.56 450.417 463.676L409.772 395.36H409.779ZM554.111 490.497C553.581 490.236 553.029 490.083 552.478 490.018L548.77 443.814L594.546 431.477C594.8 431.949 595.141 432.377 595.54 432.754L554.604 490.795C554.444 490.693 554.277 490.591 554.103 490.504L554.111 490.497Z" fill="#D1D1D1"/>
</g>
</svg>
