<svg width="352" height="180" viewBox="0 0 352 180" fill="none" xmlns="http://www.w3.org/2000/svg">
<path d="M376.051 173.183C376.652 172.051 376.158 170.679 374.95 170.116C374.705 170.003 374.453 169.933 374.197 169.9L375.426 139.52C376.226 139.437 376.961 138.991 377.344 138.265C377.945 137.133 377.451 135.761 376.243 135.198C375.338 134.775 374.29 134.928 373.569 135.508L330.864 100.763C330.91 100.697 330.953 100.627 330.992 100.554C331.592 99.4214 331.098 98.0494 329.891 97.4866C328.683 96.9239 327.22 97.3867 326.619 98.5189C326.545 98.6621 326.488 98.8053 326.445 98.9552L295.213 95.7085C295.181 94.8993 294.687 94.1301 293.86 93.7438C292.652 93.181 291.189 93.6439 290.588 94.7761C290.343 95.2356 290.283 95.7351 290.375 96.2046L257.694 106.631C257.463 106.211 257.097 105.855 256.614 105.628C256.085 105.382 255.506 105.332 254.973 105.449L224.995 34.3743C225.396 34.1579 225.737 33.8316 225.961 33.412C226.561 32.2798 226.068 30.9079 224.86 30.3451C223.652 29.7823 222.189 30.2452 221.589 31.3774C221.436 31.6671 221.354 31.9735 221.336 32.2765L123.296 41.0076C123.64 39.9553 123.136 38.7965 122.049 38.2903C120.841 37.7276 119.378 38.1905 118.778 39.3226C118.742 39.3859 118.714 39.4525 118.685 39.5191L83.3046 32.1033C83.3721 31.2042 82.8713 30.3151 81.9585 29.8889C80.8609 29.3761 79.5502 29.7157 78.8718 30.6315L37.7972 11.491C38.1666 10.4287 37.6623 9.24662 36.5647 8.73714C35.9147 8.43412 35.1901 8.43079 34.565 8.66721L16.1731 -20.6762C16.4288 -20.876 16.649 -21.1224 16.8053 -21.4221C17.4056 -22.5543 16.9119 -23.9262 15.7042 -24.489C14.4966 -25.0517 13.0332 -24.5889 12.4329 -23.4567C11.8823 -22.4211 12.2517 -21.1857 13.2427 -20.5497L-21.7864 43.6249C-22.9266 43.2619 -24.2018 43.7348 -24.7523 44.7737C-25.3526 45.9059 -24.8589 47.2779 -23.6512 47.8406C-23.2179 48.0437 -22.7526 48.1103 -22.305 48.0637L-13.0132 81.5729C-13.5318 81.7794 -13.9758 82.1489 -14.2457 82.6584C-14.846 83.7906 -14.3523 85.1626 -13.1446 85.7253C-11.9369 86.2881 -10.4735 85.8252 -9.87327 84.6931C-9.69922 84.3634 -9.61752 84.0137 -9.62107 83.6674L20.6059 79.3751C20.7941 79.9545 21.2275 80.464 21.8526 80.7537C22.5097 81.0601 23.245 81.0601 23.8772 80.817L37.8754 101.419C37.6729 101.599 37.4989 101.812 37.3675 102.059C36.7672 103.191 37.2609 104.563 38.4686 105.126C39.6762 105.688 41.1396 105.225 41.7399 104.093C41.7399 104.093 41.7399 104.09 41.7399 104.087L41.6014 104.403L115.542 132.794C115.276 133.813 115.78 134.905 116.824 135.391C117.339 135.631 117.9 135.684 118.423 135.578L130.183 164.918C129.764 165.134 129.412 165.467 129.181 165.9C128.581 167.032 129.075 168.404 130.283 168.967C131.49 169.53 132.954 169.067 133.554 167.935C133.767 167.535 133.838 167.102 133.795 166.689L182.741 155.098C182.958 155.587 183.359 156.014 183.906 156.267C185.114 156.829 186.577 156.367 187.177 155.234C187.405 154.805 187.476 154.339 187.408 153.896L217.056 145.671C217.28 146.127 217.667 146.517 218.182 146.756C219.39 147.319 220.853 146.856 221.454 145.724C221.496 145.644 221.532 145.561 221.564 145.478L277.343 154.878C277.336 155.727 277.83 156.546 278.697 156.949C279.336 157.249 280.05 157.256 280.668 157.029L300.559 188.377C300.282 188.58 300.047 188.844 299.877 189.157C299.276 190.289 299.77 191.661 300.978 192.223C302.153 192.769 303.571 192.347 304.199 191.281L348.407 202.35C348.389 203.209 348.883 204.041 349.76 204.448C350.968 205.01 352.431 204.548 353.031 203.415C353.475 202.576 353.319 201.607 352.719 200.931L372.809 174.228C374.009 174.771 375.458 174.308 376.051 173.186V173.183ZM348.655 201.374C348.602 201.474 348.563 201.574 348.524 201.677L308.6 191.681L304.448 190.642C304.476 190.508 304.494 190.375 304.501 190.242L348.613 179.1L350.414 200.145C349.678 200.269 349.014 200.701 348.659 201.377L348.655 201.374ZM118.991 131.276C118.703 131.142 118.401 131.066 118.099 131.046L115.734 98.3658L122.397 128.282L119.282 131.439C119.19 131.379 119.094 131.325 118.994 131.279L118.991 131.276ZM39.3139 100.783L35.3286 79.5383L53.1523 79.9146C53.2268 80.4573 53.5074 80.9668 53.9585 81.3398L40.3688 100.907C40.0243 100.79 39.6656 100.753 39.3139 100.783ZM-10.9815 81.6095C-11.4148 81.4064 -11.8801 81.3398 -12.3276 81.3864L-21.6195 47.8772C-21.3496 47.7707 -21.1009 47.6142 -20.8843 47.421L6.11044 66.9478L-10.5694 81.8526C-10.6973 81.7594 -10.8358 81.6795 -10.9815 81.6095ZM326.527 100.344C326.736 100.863 327.148 101.313 327.72 101.579C328.221 101.812 328.765 101.869 329.276 101.772L344.933 143.197C344.823 143.253 344.716 143.317 344.613 143.387L303.336 105.106L326.527 100.34V100.344ZM304.171 189.013L344.72 147.119C344.805 147.173 344.894 147.223 344.99 147.269C345.288 147.409 345.601 147.482 345.913 147.502L348.56 178.414L304.42 189.563C304.363 189.37 304.281 189.183 304.174 189.01L304.171 189.013ZM348.492 144.908L355.23 143.06L371.924 170.136L348.002 146.627C348.101 146.507 348.187 146.38 348.261 146.24C348.488 145.811 348.559 145.348 348.492 144.908ZM348.29 144.262C348.066 143.806 347.679 143.413 347.16 143.17C346.659 142.937 346.116 142.88 345.604 142.977L330.445 102.865L354.857 142.461L348.29 144.262ZM341.903 141.825L315.534 123.034L294.581 108.102C294.598 108.076 294.616 108.049 294.63 108.019C294.829 107.643 294.908 107.237 294.879 106.844L302.502 105.279L341.907 141.825H341.903ZM294.723 106.188C294.513 105.668 294.101 105.219 293.529 104.952C293.316 104.852 293.092 104.786 292.869 104.749L293.068 98.0594C293.49 98.0128 293.895 97.8596 294.24 97.6165L301.894 104.716L294.726 106.188H294.723ZM291.686 97.8363C291.899 97.9362 292.123 98.0028 292.347 98.0394L292.148 104.729C291.359 104.819 290.635 105.265 290.255 105.981C290.13 106.214 290.056 106.461 290.02 106.707L257.925 107.287C257.925 107.287 257.921 107.267 257.918 107.257L290.599 96.834C290.83 97.2536 291.196 97.6099 291.679 97.8363H291.686ZM183.771 152.221L169.499 135.361L193.702 115.055C193.844 115.165 194.001 115.265 194.175 115.345C194.235 115.372 194.295 115.398 194.359 115.422L185.192 151.921C184.695 151.881 184.197 151.988 183.768 152.218L183.771 152.221ZM-20.3479 44.827L22.737 18.8468L28.0685 44.9102C27.4895 45.1001 26.9851 45.493 26.6903 46.0491C26.5838 46.2489 26.5127 46.4587 26.4737 46.6718L-20.1455 45.493C-20.1739 45.2632 -20.2414 45.0368 -20.3444 44.827H-20.3479ZM15.5515 -20.3499L33.9398 8.98689C33.6734 9.18669 33.4461 9.44308 33.2863 9.74944C32.9488 10.3888 32.956 11.1047 33.2472 11.7108L23.2414 17.7446L15.4591 -20.3132C15.4911 -20.3232 15.5231 -20.3366 15.5515 -20.3465V-20.3499ZM44.3079 42.3163L31.1232 46.1923C30.9065 45.6995 30.5051 45.2732 29.9581 45.0168C29.8516 44.9669 29.7415 44.9269 29.6313 44.8936L35.421 13.0494C35.5347 13.0494 35.6519 13.0494 35.762 13.0361L44.3079 42.3163ZM78.6729 32.9158C78.8505 33.2588 79.1205 33.5651 79.4721 33.7916L56.3241 77.4504C55.9796 77.3439 55.6244 77.3139 55.2799 77.3539L45.1817 42.7625L78.6694 32.9158H78.6729ZM121.069 42.6093C121.182 42.606 121.296 42.5893 121.406 42.5693L137.024 85.0327L117.069 92.2886C116.838 91.9556 116.515 91.6726 116.11 91.4828C115.975 91.4195 115.837 91.3729 115.698 91.3363L119.95 52.7656L121.069 42.6093ZM253.087 107.556L213.607 111.246L206.646 73.4412C206.983 73.338 207.296 73.1614 207.562 72.925L253.407 106.534C253.385 106.571 253.361 106.604 253.343 106.644C253.187 106.937 253.108 107.247 253.091 107.553L253.087 107.556ZM117.41 94.0102C117.496 93.6373 117.478 93.2576 117.368 92.9046L137.259 85.672L144.053 104.14C143.407 104.256 142.817 104.613 142.448 105.162L117.41 94.0102ZM34.3838 12.8163C34.4904 12.8662 34.6005 12.9062 34.7106 12.9395L28.9068 44.7837C28.8606 44.7837 28.8144 44.7837 28.7682 44.7837L23.3835 18.4572L33.6344 12.2769C33.8368 12.4966 34.089 12.6831 34.3838 12.8196V12.8163ZM204.791 73.3213C204.852 73.3479 204.912 73.3712 204.973 73.3946L195.684 110.17L195.468 111.023C194.867 110.976 194.271 111.139 193.795 111.476L172.192 91.5061L204.021 72.7652C204.227 72.9916 204.486 73.1848 204.788 73.3246L204.791 73.3213ZM193.294 111.952C193.212 112.055 193.141 112.165 193.077 112.282C193.013 112.405 192.963 112.531 192.921 112.658L181.846 111.226L146.927 106.714C146.945 106.597 146.952 106.481 146.952 106.368L171.574 91.869L193.297 111.952H193.294ZM146.824 105.648C146.753 105.459 146.657 105.275 146.536 105.106L152.198 91.2064L156.656 80.2609C157.341 80.4041 158.055 80.2609 158.613 79.8846L171.048 91.3796L146.824 105.645V105.648ZM155.082 79.192C155.292 79.5283 155.601 79.818 155.984 80.0211L151.505 91.0166L145.989 104.563C145.868 104.476 145.741 104.4 145.598 104.336C145.343 104.216 145.073 104.147 144.806 104.117L137.933 85.429L155.086 79.1953L155.082 79.192ZM196.348 111.249C196.288 111.223 196.228 111.199 196.167 111.176L205.672 73.5477C205.761 73.5544 205.85 73.5577 205.935 73.5544L212.89 111.309L197.627 112.734C197.46 112.108 197.013 111.552 196.348 111.243V111.249ZM203.644 72.1891L171.67 91.0166L159.124 79.4184C159.217 79.3052 159.298 79.182 159.369 79.0521C159.536 78.7358 159.614 78.4028 159.621 78.0731L203.545 71.9394C203.573 72.026 203.605 72.1092 203.644 72.1925V72.1891ZM154.812 78.5693L137.695 84.7929L122.085 42.3529C122.159 42.3162 122.234 42.2763 122.305 42.233L155.27 76.6113C155.167 76.7345 155.075 76.8677 154.997 77.0142C154.73 77.517 154.681 78.0631 154.812 78.5693ZM54.5908 77.5337C54.5197 77.5637 54.4523 77.5936 54.3883 77.6269L30.6294 48.6564C30.7999 48.4933 30.9456 48.3001 31.0592 48.0837C31.2723 47.6841 31.3434 47.2579 31.3008 46.845L44.4997 42.9622L54.5908 77.5304V77.5337ZM117.158 94.6429L142.16 105.775C141.947 106.491 142.128 107.25 142.611 107.816L122.997 127.676L115.869 95.6785C116.402 95.4954 116.863 95.1391 117.158 94.6429ZM143.137 108.272C143.229 108.332 143.325 108.386 143.425 108.435C143.506 108.475 143.592 108.509 143.677 108.535L131.497 164.618C131.405 164.615 131.316 164.618 131.224 164.618L123.175 128.485L143.133 108.272H143.137ZM146.714 107.367L192.825 113.324C192.832 113.763 192.971 114.19 193.226 114.556L169.052 134.835L146.291 107.949C146.451 107.789 146.586 107.61 146.696 107.403C146.703 107.39 146.707 107.38 146.714 107.367ZM197.702 113.41L213.014 111.979L218.633 142.487C218.491 142.524 218.353 142.571 218.221 142.631L196.967 114.942C197.158 114.766 197.325 114.559 197.453 114.323C197.609 114.03 197.688 113.72 197.705 113.414L197.702 113.41ZM220.352 142.644C220.029 142.494 219.685 142.418 219.347 142.408L213.732 111.912L253.158 108.226C253.243 108.549 253.407 108.852 253.634 109.111L220.761 142.884C220.637 142.794 220.502 142.714 220.356 142.644H220.352ZM253.844 106.008L207.999 72.3989C208.02 72.3623 208.045 72.329 208.063 72.289C208.628 71.2201 208.223 69.9414 207.161 69.3254L223.137 34.5941C223.531 34.694 223.936 34.694 224.32 34.6108L254.298 105.685C254.135 105.775 253.982 105.881 253.84 106.008H253.844ZM222.484 34.3277L206.507 69.059C205.452 68.7959 204.312 69.2288 203.758 70.1445L181.199 61.9862L222.033 33.9947C222.167 34.1213 222.317 34.2345 222.484 34.331V34.3277ZM203.499 70.7706C203.459 70.9371 203.438 71.1036 203.438 71.2701L159.526 77.4038C159.479 77.254 159.419 77.1074 159.341 76.9676L180.51 62.4557L203.495 70.7706H203.499ZM158.922 76.4248C158.737 76.2483 158.52 76.0985 158.272 75.9819C157.448 75.599 156.506 75.6922 155.796 76.1484L122.838 41.7801C122.88 41.7335 122.919 41.6835 122.955 41.6336L179.715 62.166L158.918 76.4248H158.922ZM119.872 42.3728C120.028 42.4461 120.191 42.4994 120.355 42.5393L115.794 83.9205L114.988 91.243C114.785 91.243 114.583 91.273 114.388 91.3229L94.9088 56.3819L119.122 41.8267C119.328 42.0465 119.581 42.233 119.875 42.3695L119.872 42.3728ZM113.727 91.596C113.365 91.8091 113.059 92.1088 112.85 92.4917L58.0006 79.8413C58.0397 79.445 57.9687 79.0455 57.7982 78.6892L94.3014 56.7482L113.727 91.596ZM57.411 78.1231C57.2831 77.9832 57.134 77.86 56.967 77.7534L80.115 34.0946C80.6336 34.2511 81.177 34.2411 81.6672 34.0813L93.9675 56.1488L57.411 78.1231ZM78.4562 32.2765L44.9935 42.1164L36.4546 12.8629C36.856 12.6964 37.2076 12.43 37.4705 12.0771L78.545 31.2175C78.4243 31.5672 78.3958 31.9302 78.4562 32.2798V32.2765ZM14.7523 -20.1767L22.5879 18.1342L-20.7386 44.2609C-20.8594 44.1311 -21.0015 44.0112 -21.1578 43.9079L13.8785 -20.2799C14.1662 -20.1934 14.461 -20.1601 14.7523 -20.1767ZM-20.4438 46.8849C-20.4261 46.8516 -20.4047 46.8216 -20.387 46.7883C-20.2804 46.5885 -20.2094 46.3788 -20.1703 46.1656L26.4488 47.3445C26.4985 47.7174 26.6442 48.077 26.875 48.3867L6.63613 66.4749L-20.4438 46.8849ZM27.3723 48.8762C27.5002 48.9695 27.6352 49.0494 27.7843 49.1193C27.7985 49.126 27.8163 49.1326 27.8341 49.1393L23.1064 76.4082C22.4209 76.3615 21.7389 76.5946 21.2417 77.0442L7.21509 66.8978L27.3759 48.8795L27.3723 48.8762ZM24.0157 76.6379C23.9447 76.6046 23.8772 76.578 23.8062 76.5513L28.5267 49.3324C28.6617 49.3524 28.8002 49.3591 28.9352 49.3558L34.4691 78.8457L25.369 78.6525C25.3548 77.8234 24.8611 77.0308 24.0157 76.6379ZM29.642 49.2392C29.745 49.2059 29.8445 49.1659 29.9404 49.1226L53.8094 78.0431C53.6424 78.2063 53.4968 78.3961 53.3867 78.6093C53.2766 78.8124 53.2055 79.0255 53.1665 79.2419L35.1972 78.8623L29.6385 49.2425L29.642 49.2392ZM41.8535 102.318C41.6973 101.892 41.406 101.506 41.0011 101.226L54.5588 81.7061C55.7523 82.2189 57.173 81.756 57.7591 80.6472C57.784 80.5972 57.8088 80.5472 57.8301 80.494L72.2368 83.8173L112.622 93.1311C112.608 93.201 112.601 93.271 112.594 93.3409L41.8535 102.318ZM119.808 131.895L122.578 129.091L130.062 162.694L119.09 135.328C119.509 135.112 119.861 134.779 120.092 134.346C120.529 133.52 120.383 132.571 119.808 131.895ZM132.453 164.851C132.371 164.811 132.286 164.778 132.201 164.751L144.38 108.669C144.853 108.692 145.321 108.585 145.73 108.366L168.516 135.285L132.925 165.141C132.783 165.031 132.627 164.931 132.453 164.851ZM133.405 165.644L168.967 135.814L183.21 152.64C183.05 152.8 182.915 152.98 182.805 153.187C182.592 153.586 182.521 154.019 182.563 154.432L133.618 166.02C133.561 165.887 133.486 165.764 133.405 165.644ZM186.076 152.154C186.016 152.128 185.956 152.101 185.892 152.078L195.059 115.578C195.517 115.615 195.976 115.525 196.38 115.332L217.625 143.004C217.408 143.19 217.22 143.413 217.081 143.676C216.854 144.106 216.783 144.572 216.85 145.015L187.202 153.24C186.978 152.784 186.591 152.394 186.076 152.154ZM221.287 143.41C221.287 143.41 221.269 143.383 221.258 143.37L254.163 109.564C254.252 109.621 254.341 109.671 254.437 109.717C255.023 109.991 255.666 110.021 256.245 109.851L262.521 122.088L221.29 143.41H221.287ZM256.895 109.561C257.232 109.348 257.516 109.052 257.712 108.685C257.836 108.452 257.911 108.206 257.946 107.959L290.041 107.38C290.066 107.523 290.105 107.663 290.162 107.796L263.157 121.762L256.902 109.558L256.895 109.561ZM290.503 108.389C290.723 108.659 291.008 108.888 291.356 109.052C291.409 109.075 291.459 109.095 291.512 109.115L282.465 143.297L280 152.61C279.666 152.58 279.332 152.617 279.016 152.714L263.459 122.368L290.5 108.386L290.503 108.389ZM280.867 152.84C280.81 152.814 280.757 152.794 280.7 152.77L283.112 143.656L292.212 109.275C292.258 109.278 292.308 109.281 292.354 109.285L297.397 152.008L282.124 154.245C281.939 153.656 281.506 153.133 280.87 152.84H280.867ZM293.064 109.211C293.465 109.111 293.842 108.915 294.144 108.639L310.049 119.974L343.935 144.122C343.917 144.149 343.899 144.176 343.885 144.202C343.708 144.535 343.629 144.888 343.633 145.238L298.104 151.908L293.064 109.215V109.211ZM343.747 145.901C343.839 146.18 343.988 146.44 344.187 146.67L303.713 188.484C303.546 188.341 303.358 188.217 303.148 188.118C302.892 187.998 302.622 187.928 302.356 187.898L298.186 152.577L343.747 145.904V145.901ZM346.624 147.449C346.929 147.382 347.22 147.259 347.48 147.089L371.779 170.968C371.743 171.025 371.707 171.082 371.675 171.142C371.423 171.618 371.366 172.141 371.473 172.623L349.256 178.234L346.62 147.446L346.624 147.449ZM373.476 169.906C373.221 169.946 372.976 170.019 372.745 170.133L355.933 142.867L372.936 138.202C373.16 138.658 373.547 139.051 374.066 139.294C374.272 139.391 374.485 139.454 374.702 139.494L373.473 169.909L373.476 169.906ZM373.1 136.014C373.054 136.081 373.011 136.151 372.972 136.224C372.745 136.653 372.674 137.116 372.741 137.556L355.571 142.268L330.327 101.323C330.352 101.306 330.377 101.289 330.398 101.269L373.103 136.014H373.1ZM326.367 99.6145C326.367 99.6378 326.371 99.6611 326.374 99.6844L302.729 104.543L294.744 97.137C294.826 97.0338 294.9 96.9239 294.964 96.804C295.039 96.6609 295.099 96.5176 295.138 96.3678L326.371 99.6145H326.367ZM221.4 32.9325C221.446 33.1123 221.517 33.2821 221.61 33.4453L180.404 61.6931L124.695 41.5404L221.4 32.9291V32.9325ZM118.526 40.1584C118.497 40.538 118.568 40.9177 118.735 41.264L94.5785 55.7858L82.3065 33.7716C82.6156 33.5618 82.8748 33.2821 83.056 32.9425C83.0915 32.8792 83.1199 32.8126 83.1483 32.746L118.529 40.1618L118.526 40.1584ZM-9.73474 82.9881C-9.80933 82.7584 -9.92299 82.5386 -10.0722 82.3421L6.68586 67.364L20.8012 77.577C20.7835 77.6103 20.7622 77.6402 20.7444 77.6735C20.5704 78.0032 20.4887 78.3529 20.4922 78.6992L-9.73474 82.9914V82.9881ZM24.481 80.454C24.7368 80.2542 24.957 80.0045 25.1133 79.7081C25.1808 79.5816 25.2305 79.4551 25.2696 79.3252L34.5898 79.5217L38.6106 100.946C38.5573 100.966 38.5041 100.99 38.4508 101.016L24.4775 80.454H24.481ZM41.85 103.804C41.9495 103.534 41.9956 103.254 41.985 102.981L112.64 94.0135C112.793 94.6695 113.247 95.2589 113.94 95.5819C114.228 95.7151 114.53 95.7917 114.832 95.8117L117.385 131.089C116.743 131.222 116.167 131.595 115.812 132.155L41.8678 103.764L41.8535 103.8L41.85 103.804ZM221.706 144.808C221.72 144.539 221.681 144.276 221.599 144.023L262.834 122.701L278.38 153.02C278.057 153.233 277.784 153.52 277.599 153.876C277.542 153.986 277.496 154.096 277.46 154.209L221.709 144.812L221.706 144.808ZM281.286 156.69C281.563 156.487 281.797 156.223 281.964 155.91C282.135 155.591 282.213 155.251 282.216 154.915L297.472 152.68L301.631 187.918C301.475 187.944 301.322 187.984 301.177 188.038L281.282 156.69H281.286ZM351.93 200.345C351.671 200.225 351.401 200.155 351.131 200.125L349.316 178.924L371.722 173.263C371.846 173.479 372.013 173.676 372.208 173.849L352.172 200.482C352.094 200.435 352.012 200.388 351.927 200.348L351.93 200.345Z" fill="#D1D1D1"/>
</svg>
